<svg width="74" height="72" viewBox="0 0 74 72" fill="none" xmlns="http://www.w3.org/2000/svg">
<path d="M36.9859 6.04374C20.3365 6.04374 6.71434 19.346 6.71434 35.7295C6.71434 50.5427 17.7937 62.8377 32.2635 65.0597V44.3212H24.5746V35.7295H32.2635V29.182C32.2635 21.7458 36.774 17.6573 43.7062 17.6573C47.0058 17.6573 50.4567 18.2202 50.4567 18.2202V25.5379H46.6425C42.8888 25.5379 41.7083 27.8192 41.7083 30.1597V35.7295H50.1237L48.7615 44.3212H41.7083V65.0597C48.8414 63.957 55.3371 60.395 60.0222 55.0163C64.7074 49.6379 67.2738 42.7972 67.2574 35.7295C67.2574 19.346 53.6352 6.04374 36.9859 6.04374Z" fill="white" stroke="white"/>
</svg>
