<svg width="64" height="63" viewBox="0 0 64 63" fill="none" xmlns="http://www.w3.org/2000/svg">
<g clip-path="url(#clip0_125_52)">
<path fill-rule="evenodd" clip-rule="evenodd" d="M31.7042 0.637186C49.15 0.637186 63.2919 14.8267 63.2919 32.3337C63.2919 46.3348 54.2515 58.2123 41.708 62.4074C40.1065 62.7196 39.5379 61.7298 39.5379 60.8858C39.5379 59.8409 39.5758 56.4281 39.5758 52.1866C39.5758 49.2312 38.565 47.3022 37.431 46.3192C44.4656 45.5339 51.8571 42.8534 51.8571 30.6792C51.8571 27.2168 50.6315 24.3914 48.6036 22.1717C48.9321 21.371 50.0155 18.147 48.294 13.7819C48.294 13.7819 45.647 12.9326 39.6169 17.0319C37.093 16.3301 34.3891 15.977 31.7042 15.9646C29.0192 15.977 26.3185 16.3301 23.7978 17.0319C17.7614 12.9326 15.108 13.7819 15.108 13.7819C13.3928 18.147 14.4762 21.371 14.8016 22.1717C12.7831 24.3914 11.5481 27.2168 11.5481 30.6792C11.5481 42.8225 18.9238 45.5441 25.9394 46.3448C25.036 47.1362 24.2179 48.5324 23.9336 50.582C22.1331 51.392 17.5592 52.7937 14.7416 47.9494C14.7416 47.9494 13.0706 44.9039 9.89917 44.6814C9.89917 44.6814 6.81936 44.6413 9.68437 46.6075C9.68437 46.6075 11.7534 47.5813 13.1906 51.2447C13.1906 51.2447 15.0448 56.9019 23.8325 54.9852C23.8483 57.6346 23.8767 60.1315 23.8767 60.8858C23.8767 61.7236 23.2955 62.7041 21.7193 62.4104C9.16632 58.2215 0.116455 46.3379 0.116455 32.3337C0.116455 14.8267 14.2614 0.637186 31.7042 0.637186Z" fill="white"/>
</g>
<defs>
<clipPath id="clip0_125_52">
<rect width="63.1754" height="61.8291" fill="white" transform="translate(0.116455 0.637186)"/>
</clipPath>
</defs>
</svg>
