<svg width="64" height="63" viewBox="0 0 64 63" fill="none" xmlns="http://www.w3.org/2000/svg">
<g clip-path="url(#clip0_124_15)">
<path d="M31.5877 0.637186C14.1422 0.637186 7.62939e-06 14.478 7.62939e-06 31.5517C7.62939e-06 48.6254 14.1422 62.4663 31.5877 62.4663C49.0332 62.4663 63.1754 48.6254 63.1754 31.5517C63.1754 14.478 49.0332 0.637186 31.5877 0.637186ZM45.8188 17.8119L31.576 28.8318L16.8699 17.8119H45.8188ZM47.2842 45.2915H15.404V22.466L30.0993 33.3748C30.4933 33.6697 31.0762 33.8171 31.5462 33.8171C32.0273 33.8171 32.445 33.6625 32.8433 33.3545L47.2842 22.1119V45.2915Z" fill="white"/>
</g>
<defs>
<clipPath id="clip0_124_15">
<rect width="63.1754" height="61.8291" fill="white" transform="translate(7.62939e-06 0.637186)"/>
</clipPath>
</defs>
</svg>
