<svg width="64" height="63" viewBox="0 0 64 63" fill="none" xmlns="http://www.w3.org/2000/svg">
<g clip-path="url(#clip0_124_28)">
<path d="M32.3841 36.9859C35.4441 36.9859 37.9489 34.5466 37.9489 31.5397C37.9489 30.3562 37.5541 29.2573 36.9001 28.3637C35.8883 26.9991 34.2472 26.0934 32.3964 26.0934C30.5456 26.0934 28.9045 26.987 27.8927 28.3637C27.2387 29.2573 26.8439 30.3562 26.8439 31.5397C26.8315 34.5466 29.324 36.9859 32.3841 36.9859Z" fill="white" stroke="white" stroke-width="0.390625"/>
<path d="M44.5256 24.8979V20.3331V19.6569H43.8346L39.1705 19.669L39.1951 24.9099L44.5256 24.8979Z" fill="white" stroke="white" stroke-width="0.390625"/>
<path d="M41.0213 31.5517C41.0213 36.2131 37.1469 40.0049 32.3841 40.0049C27.6212 40.0049 23.7468 36.2131 23.7468 31.5517C23.7468 30.4287 23.9812 29.3539 24.3884 28.3757H19.6749V41.0314C19.6749 42.6616 21.0322 43.99 22.698 43.99H42.0701C43.7359 43.99 45.0932 42.6616 45.0932 41.0314V28.3757H40.3797C40.7992 29.3539 41.0213 30.4287 41.0213 31.5517Z" fill="white" stroke="white" stroke-width="0.390625"/>
<path d="M32.3841 0.637186C14.9368 0.637186 0.796356 14.4763 0.796356 31.5517C0.796356 48.6272 14.9368 62.4663 32.3841 62.4663C49.8313 62.4663 63.9718 48.6272 63.9718 31.5517C63.9718 14.4763 49.8313 0.637186 32.3841 0.637186ZM48.1779 28.3757V41.0314C48.1779 44.3281 45.4387 47.009 42.0701 47.009H22.698C19.3295 47.009 16.5902 44.3281 16.5902 41.0314V28.3757V22.06C16.5902 18.7633 19.3295 16.0824 22.698 16.0824H42.0701C45.4387 16.0824 48.1779 18.7633 48.1779 22.06V28.3757Z" fill="white" stroke="white" stroke-width="0.390625"/>
</g>
<defs>
<clipPath id="clip0_124_28">
<rect width="63.1754" height="61.8291" fill="white" transform="translate(0.796356 0.637186)"/>
</clipPath>
</defs>
</svg>
