<svg width="64" height="63" viewBox="0 0 64 63" fill="none" xmlns="http://www.w3.org/2000/svg">
<g clip-path="url(#clip0_124_42)">
<path d="M32.0441 0.637186C14.5968 0.637186 0.45639 14.4763 0.45639 31.5517C0.45639 48.6272 14.5968 62.4663 32.0441 62.4663C49.4914 62.4663 63.6318 48.6272 63.6318 31.5517C63.6318 14.4763 49.4914 0.637186 32.0441 0.637186ZM23.2094 44.4851H17.0523V25.1998H23.2094V44.4851ZM19.9643 22.7846H19.9149C17.6816 22.7846 16.2379 21.3113 16.2379 19.4395C16.2379 17.5315 17.7309 16.0945 20.0013 16.0945C22.2716 16.0945 23.6659 17.5315 23.7153 19.4395C23.7276 21.2992 22.284 22.7846 19.9643 22.7846ZM47.8379 44.4851H40.8541V34.5104C40.8541 31.9019 39.7683 30.1147 37.3622 30.1147C35.5237 30.1147 34.4995 31.3223 34.0307 32.4816C33.8579 32.8922 33.8826 33.4718 33.8826 34.0635V44.4851H26.9604C26.9604 44.4851 27.0468 26.8059 26.9604 25.1998H33.8826V28.2308C34.2898 26.9025 36.4985 25.0186 40.0274 25.0186C44.4077 25.0186 47.8379 27.7961 47.8379 33.7616V44.4851Z" fill="white"/>
</g>
<defs>
<clipPath id="clip0_124_42">
<rect width="63.1754" height="61.8291" fill="white" transform="translate(0.45639 0.637186)"/>
</clipPath>
</defs>
</svg>
