<svg width="37" height="38" viewBox="0 0 37 38" fill="none" xmlns="http://www.w3.org/2000/svg">
<g clip-path="url(#clip0_125_70)">
<path d="M18.4698 0C10.8198 0 4.61744 6.22889 4.61744 13.9115C4.61744 16.9367 5.60499 19.7127 7.24649 21.986C7.27593 22.0405 7.28055 22.1014 7.31402 22.1536L16.5489 36.0651C16.9772 36.7103 17.6986 37.0975 18.4698 37.0975C19.2409 37.0975 19.9623 36.7103 20.3906 36.0651L29.6255 22.1536C29.6595 22.1014 29.6636 22.0405 29.693 21.986C31.3345 19.7127 32.3221 16.9367 32.3221 13.9115C32.3221 6.22889 26.1197 0 18.4698 0ZM18.4698 18.5487C15.9198 18.5487 13.8523 16.4724 13.8523 13.9115C13.8523 11.3507 15.9198 9.27436 18.4698 9.27436C21.0197 9.27436 23.0872 11.3507 23.0872 13.9115C23.0872 16.4724 21.0197 18.5487 18.4698 18.5487Z" fill="white"/>
</g>
<defs>
<clipPath id="clip0_125_70">
<rect width="36.9395" height="37.0975" fill="white"/>
</clipPath>
</defs>
</svg>
